<svg xmlns="http://www.w3.org/2000/svg" viewBox="743.9556884765625 733.1444702148438 304.8948974609375 119.078125" fill="none"><g fill="#000000" fill-opacity="1"><g transform="translate(754.940074, 836.238196)"><g><path d="M 61.921875 -52.734375 C 62.640625 -52.734375 63 -53.09375 63 -53.8125 C 63 -55.132812 62.90625 -56.304688 62.71875 -57.328125 C 62.539062 -58.347656 62.332031 -59.335938 62.09375 -60.296875 C 61.132812 -63.296875 59.363281 -65.632812 56.78125 -67.3125 C 54.207031 -68.988281 51.117188 -69.828125 47.515625 -69.828125 C 43.910156 -69.828125 40.816406 -68.988281 38.234375 -67.3125 C 35.660156 -65.632812 33.894531 -63.296875 32.9375 -60.296875 C 32.695312 -59.335938 32.484375 -58.347656 32.296875 -57.328125 C 32.117188 -56.304688 32.03125 -55.132812 32.03125 -53.8125 C 32.03125 -53.09375 32.390625 -52.734375 33.109375 -52.734375 Z M 48.59375 1.984375 C 38.632812 1.984375 30.351562 -0.175781 23.75 -4.5 C 17.15625 -8.820312 12.597656 -14.941406 10.078125 -22.859375 C 9.117188 -25.617188 8.367188 -28.617188 7.828125 -31.859375 C 7.285156 -35.097656 7.015625 -39 7.015625 -43.5625 C 7.015625 -48.113281 7.253906 -52.039062 7.734375 -55.34375 C 8.210938 -58.644531 8.9375 -61.675781 9.90625 -64.4375 C 12.414062 -72.351562 16.941406 -78.441406 23.484375 -82.703125 C 30.023438 -86.960938 37.972656 -89.09375 47.328125 -89.09375 C 57.054688 -89.09375 65.128906 -86.929688 71.546875 -82.609375 C 77.960938 -78.296875 82.429688 -72.296875 84.953125 -64.609375 C 85.429688 -63.171875 85.847656 -61.640625 86.203125 -60.015625 C 86.566406 -58.398438 86.867188 -56.570312 87.109375 -54.53125 C 87.347656 -52.488281 87.523438 -50.117188 87.640625 -47.421875 C 87.765625 -44.722656 87.828125 -41.515625 87.828125 -37.796875 C 87.828125 -36.597656 87.171875 -36 85.859375 -36 L 33.109375 -36 C 32.390625 -36 32.03125 -35.640625 32.03125 -34.921875 C 32.15625 -33.117188 32.515625 -31.5 33.109375 -30.0625 C 34.316406 -26.21875 36.476562 -23.332031 39.59375 -21.40625 C 42.71875 -19.488281 46.554688 -18.53125 51.109375 -18.53125 C 55.429688 -18.53125 59.210938 -19.21875 62.453125 -20.59375 C 65.691406 -21.976562 68.570312 -23.875 71.09375 -26.28125 C 72.175781 -27.113281 73.015625 -27.113281 73.609375 -26.28125 L 85.5 -15.125 C 86.457031 -14.28125 86.515625 -13.4375 85.671875 -12.59375 C 81.472656 -8.15625 76.253906 -4.613281 70.015625 -1.96875 C 63.773438 0.664062 56.632812 1.984375 48.59375 1.984375 Z M 48.59375 1.984375 "/></g></g></g><g fill="#000000" fill-opacity="1"><g transform="translate(849.787726, 836.238196)"><g><path d="M 64.609375 0 C 63.535156 0 62.640625 -0.539062 61.921875 -1.625 L 46.25 -25.375 L 46.078125 -25.375 L 30.59375 -1.625 C 29.632812 -0.539062 28.675781 0 27.71875 0 L 4.5 0 C 3.78125 0 3.328125 -0.175781 3.140625 -0.53125 C 2.960938 -0.894531 2.992188 -1.316406 3.234375 -1.796875 L 32.578125 -45.171875 L 5.40625 -85.3125 C 5.164062 -85.789062 5.132812 -86.207031 5.3125 -86.5625 C 5.488281 -86.925781 5.9375 -87.109375 6.65625 -87.109375 L 30.0625 -87.109375 C 31.375 -87.109375 32.390625 -86.570312 33.109375 -85.5 L 46.25 -64.96875 L 46.4375 -64.96875 L 59.75 -85.5 C 60.59375 -86.570312 61.554688 -87.109375 62.640625 -87.109375 L 85.859375 -87.109375 C 86.691406 -87.109375 87.195312 -86.925781 87.375 -86.5625 C 87.5625 -86.207031 87.535156 -85.789062 87.296875 -85.3125 L 60.109375 -45.171875 L 89.453125 -1.796875 C 89.691406 -1.316406 89.71875 -0.894531 89.53125 -0.53125 C 89.351562 -0.175781 88.847656 0 88.015625 0 Z M 64.609375 0 "/></g></g></g><g fill="#000000" fill-opacity="1"><g transform="translate(942.475661, 836.238196)"><g><path d="M 47.703125 -19.265625 C 54.660156 -19.265625 59.15625 -22.382812 61.1875 -28.625 C 61.789062 -30.65625 62.210938 -32.722656 62.453125 -34.828125 C 62.691406 -36.929688 62.8125 -39.84375 62.8125 -43.5625 C 62.8125 -47.28125 62.691406 -50.1875 62.453125 -52.28125 C 62.210938 -54.382812 61.789062 -56.457031 61.1875 -58.5 C 59.15625 -64.738281 54.660156 -67.859375 47.703125 -67.859375 C 40.734375 -67.859375 36.234375 -64.738281 34.203125 -58.5 C 33.597656 -56.457031 33.175781 -54.382812 32.9375 -52.28125 C 32.695312 -50.1875 32.578125 -47.28125 32.578125 -43.5625 C 32.578125 -39.84375 32.695312 -36.929688 32.9375 -34.828125 C 33.175781 -32.722656 33.597656 -30.65625 34.203125 -28.625 C 36.234375 -22.382812 40.734375 -19.265625 47.703125 -19.265625 Z M 47.703125 1.984375 C 38.460938 1.984375 30.476562 -0.113281 23.75 -4.3125 C 17.03125 -8.519531 12.414062 -14.582031 9.90625 -22.5 C 8.9375 -25.613281 8.210938 -28.820312 7.734375 -32.125 C 7.253906 -35.425781 7.015625 -39.238281 7.015625 -43.5625 C 7.015625 -47.875 7.253906 -51.679688 7.734375 -54.984375 C 8.210938 -58.285156 8.9375 -61.492188 9.90625 -64.609375 C 12.414062 -72.535156 17.03125 -78.597656 23.75 -82.796875 C 30.476562 -86.992188 38.460938 -89.09375 47.703125 -89.09375 C 56.929688 -89.09375 64.90625 -86.992188 71.625 -82.796875 C 78.351562 -78.597656 82.976562 -72.535156 85.5 -64.609375 C 86.457031 -61.492188 87.175781 -58.285156 87.65625 -54.984375 C 88.132812 -51.679688 88.375 -47.875 88.375 -43.5625 C 88.375 -39.238281 88.132812 -35.425781 87.65625 -32.125 C 87.175781 -28.820312 86.457031 -25.613281 85.5 -22.5 C 82.976562 -14.582031 78.351562 -8.519531 71.625 -4.3125 C 64.90625 -0.113281 56.929688 1.984375 47.703125 1.984375 Z M 47.703125 1.984375 "/></g></g></g></svg>